<?xml version="1.0" encoding="utf-8"?>
<!-- Generator: Adobe Illustrator 24.3.0, SVG Export Plug-In . SVG Version: 6.00 Build 0)  -->
<svg version="1.1" id="Livello_1" xmlns="http://www.w3.org/2000/svg" xmlns:xlink="http://www.w3.org/1999/xlink" x="0px" y="0px"
	 viewBox="0 0 595.28 841.89" style="enable-background:new 0 0 595.28 841.89;" xml:space="preserve">
<style type="text/css">
	.st0{fill:#FFFFFF;}
</style>
<g>
	<path d="M426.71,343.62c0-3.32-0.52-6.68-1.19-9.94c-0.58-2.76-1.79-5.37-2.61-8.08c-1.13-3.74-3.07-7.09-5.23-10.26
		c-4.93-7.21-11.17-13.02-18.91-17.22c-4.54-2.47-9.31-4.29-14.27-5.44c-3.62-0.84-7.44-1.13-11.17-1.13
		c-49.91-0.07-99.82-0.05-149.73-0.05c-1.2,0-2.4-0.01-3.6,0.03c-4.58,0.15-9.03,1.11-13.36,2.49c-4.18,1.33-8.14,3.18-11.91,5.49
		c-6.38,3.9-11.56,9.04-15.92,15.04c-2.95,4.08-5.18,8.58-6.74,13.35c-0.94,2.85-1.76,5.78-2.16,8.74
		c-0.49,3.56-0.64,7.18-0.64,10.77c-0.05,47.83-0.05,95.65-0.04,143.48c0,6.78,0.22,13.52,2.39,20.09c1.21,3.67,2.54,7.3,4.46,10.59
		c3.2,5.46,7.07,10.44,12.04,14.5c3.31,2.7,6.78,5.13,10.59,7.03c3.25,1.62,6.58,2.97,10.15,3.85c4.1,1.02,8.15,1.92,12.39,1.78
		c0.56-0.02,1.12,0,1.68,0c25.04,0.01,50.07,0,75.11,0c21.99,0,43.99,0.07,65.98-0.05c6.5-0.03,13.07,0.84,19.51-0.94
		c2.88-0.8,5.91-1.22,8.67-2.32c4.69-1.85,9.03-4.36,13.11-7.42c5.1-3.82,9.31-8.37,12.78-13.63c3.27-4.95,5.61-10.31,6.91-16.15
		c0.89-3.97,1.76-7.91,1.76-12C426.76,445.35,426.78,394.49,426.71,343.62z M413.18,494.17c0,2.95-0.06,5.97-0.67,8.84
		c-1.04,4.85-2.82,9.44-5.58,13.68c-4.46,6.85-10.3,11.96-17.75,15.28c-5.48,2.45-11.22,3.53-17.19,3.53H251.52
		c-9.2,0-18.4-0.03-27.6,0.02c-4.59,0.02-9.15-0.54-13.43-2.03c-7.31-2.54-13.69-6.61-18.62-12.76c-3.62-4.5-6.34-9.47-7.77-15.02
		c-0.74-2.88-1.38-5.83-1.37-8.92c0.09-25.6,0.05-51.2,0.05-76.79c0,0-0.01,0-0.02,0v-73.68c0-1.04,0.04-2.08,0.01-3.12
		c-0.08-3.38,0.93-6.54,1.8-9.76c1.69-6.26,5.06-11.52,9.45-16.13c3.49-3.67,7.53-6.63,12.21-8.69c3.49-1.53,7.1-2.37,10.84-3.09
		c4-0.76,7.95-0.65,11.93-0.65c47.51-0.03,95.03-0.01,142.55-0.05c4.75,0,9.43,0.63,13.85,2.09c9.19,3.04,16.46,8.75,21.7,17.01
		c2.62,4.14,4.35,8.63,5.39,13.34c0.61,2.78,0.69,5.72,0.7,8.59C413.22,395.3,413.22,444.73,413.18,494.17z"/>
	<path class="st0" d="M413.19,345.86c-0.01-2.87-0.09-5.81-0.7-8.59c-1.04-4.71-2.77-9.2-5.39-13.34
		c-5.24-8.26-12.51-13.97-21.7-17.01c-4.42-1.46-9.1-2.09-13.85-2.09c-47.52,0.04-95.04,0.02-142.55,0.05
		c-3.98,0-7.93-0.11-11.93,0.65c-3.74,0.72-7.35,1.56-10.84,3.09c-4.68,2.06-8.72,5.02-12.21,8.69c-4.39,4.61-7.76,9.87-9.45,16.13
		c-0.87,3.22-1.88,6.38-1.8,9.76c0.03,1.04-0.01,2.08-0.01,3.12V420c0.01,0,0.02,0,0.02,0c0,25.59,0.04,51.19-0.05,76.79
		c-0.01,3.09,0.63,6.04,1.37,8.92c1.43,5.55,4.15,10.52,7.77,15.02c4.93,6.15,11.31,10.22,18.62,12.76
		c4.28,1.49,8.84,2.05,13.43,2.03c9.2-0.05,18.4-0.02,27.6-0.02h120.47c5.97,0,11.71-1.08,17.19-3.53
		c7.45-3.32,13.29-8.43,17.75-15.28c2.76-4.24,4.54-8.83,5.58-13.68c0.61-2.87,0.67-5.89,0.67-8.84
		C413.22,444.73,413.22,395.3,413.19,345.86z M297.77,445.14c-14.52-0.26-24.85-11.17-24.88-25.12
		c-0.03-12.82,10.25-25.02,25.13-24.58c13.76-0.76,25.05,11.95,24.99,24.7C322.95,433.52,311.91,445.4,297.77,445.14z"/>
	<path d="M323.01,420.14c-0.06,13.38-11.1,25.26-25.24,25c-14.52-0.26-24.85-11.17-24.88-25.12c-0.03-12.82,10.25-25.02,25.13-24.58
		C311.78,394.68,323.07,407.39,323.01,420.14z"/>
</g>
</svg>
