<?xml version="1.0" encoding="utf-8"?>
<!-- Generator: Adobe Illustrator 24.3.0, SVG Export Plug-In . SVG Version: 6.00 Build 0)  -->
<svg version="1.1" id="Livello_1" xmlns="http://www.w3.org/2000/svg" xmlns:xlink="http://www.w3.org/1999/xlink" x="0px" y="0px"
	 viewBox="0 0 595.28 841.89" style="enable-background:new 0 0 595.28 841.89;" xml:space="preserve">
<style type="text/css">
	.st0{fill:#FFFFFF;}
</style>
<g>
	<path d="M426.85,423.07c0-25.52,0.02-51.04,0-76.55c0-6.33-0.9-12.56-3.01-18.52c-1.74-4.95-4.17-9.6-7.32-13.83
		c-2.24-3.01-4.67-5.86-7.51-8.36c-3.24-2.84-6.67-5.42-10.45-7.41c-3.18-1.66-6.57-2.97-9.98-4.11c-2.14-0.72-4.57-0.58-6.7-1.31
		c-2.98-1.03-5.98-0.88-9-0.88c-47.75-0.03-95.51-0.04-143.27,0.01c-5.31,0.01-10.63-0.38-15.96,0.88
		c-3.58,0.84-7.12,1.67-10.58,2.96c-6.1,2.25-11.39,5.74-16.14,10.07c-8.17,7.43-13.67,16.45-16.07,27.3
		c-0.99,4.45-1.71,8.91-1.71,13.47c0.01,49.36-0.02,98.72,0.05,148.07c0.01,3.73,0.65,7.46,1,11.19c0.01,0.15,0.04,0.31,0.09,0.46
		c0.88,2.78,1.78,5.54,2.63,8.32c1.15,3.82,3.06,7.28,5.26,10.54c4.89,7.26,11.15,13.09,18.83,17.39c4.4,2.45,9.12,4.01,13.91,5.34
		c3.7,1.03,7.55,1.14,11.41,1.13c25.2-0.05,50.4-0.02,75.6-0.02c24.31,0,48.63,0,72.95-0.01c5.65,0,11.24,0.07,16.75-1.89
		c2.91-1.03,5.95-1.79,8.7-3.22c2.85-1.48,5.73-2.99,8.31-4.88c4.03-2.97,7.56-6.48,10.73-10.43c4.53-5.65,7.53-12,9.54-18.81
		c1.44-4.88,1.95-10,1.95-15.14C426.84,470.91,426.85,446.99,426.85,423.07z M413.13,420.71c0.01,23.91,0.01,47.83,0,71.75
		c0,2.16,0.03,4.32-0.08,6.47c-0.35,7.22-2.88,13.65-6.93,19.61c-3.48,5.12-7.93,9.09-13.23,12.13c-2.7,1.54-5.52,2.83-8.61,3.65
		c-4.64,1.22-9.28,1.77-14.06,1.76c-48.79-0.03-97.58-0.04-146.37,0.04c-3.48,0.01-6.89-0.48-10.15-1.22
		c-7.47-1.7-14.01-5.49-19.39-11.02c-4.32-4.44-7.47-9.59-9.42-15.55c-1.16-3.52-1.91-7.02-1.91-10.71c0-3.12-0.03-6.24-0.03-9.36
		c-0.01-46.55-0.01-93.1,0-139.65c0-2,0.01-4,0.07-6c0.23-7.64,3.16-14.33,7.44-20.48c3.76-5.39,8.77-9.38,14.6-12.32
		c2.3-1.15,4.67-2.14,7.21-2.83c5.11-1.38,10.27-1.7,15.53-1.69c48.31,0.03,96.62,0.01,144.93,0.02c3.66,0.01,7.2,0.73,10.74,1.64
		c7.84,2.04,14.37,6.18,19.71,12.2c3.59,4.05,6.2,8.66,8,13.83c1.58,4.53,1.97,9.11,1.97,13.82
		C413.12,371.44,413.13,396.07,413.13,420.71z"/>
	<path class="st0" d="M413.13,420.71c0-24.64-0.01-49.27,0.02-73.91c0-4.71-0.39-9.29-1.97-13.82c-1.8-5.17-4.41-9.78-8-13.83
		c-5.34-6.02-11.87-10.16-19.71-12.2c-3.54-0.91-7.08-1.63-10.74-1.64c-48.31-0.01-96.62,0.01-144.93-0.02
		c-5.26-0.01-10.42,0.31-15.53,1.69c-2.54,0.69-4.91,1.68-7.21,2.83c-5.83,2.94-10.84,6.93-14.6,12.32
		c-4.28,6.15-7.21,12.84-7.44,20.48c-0.06,2-0.07,4-0.07,6c-0.01,46.55-0.01,93.1,0,139.65c0,3.12,0.03,6.24,0.03,9.36
		c0,3.69,0.75,7.19,1.91,10.71c1.95,5.96,5.1,11.11,9.42,15.55c5.38,5.53,11.92,9.32,19.39,11.02c3.26,0.74,6.67,1.23,10.15,1.22
		c48.79-0.08,97.58-0.07,146.37-0.04c4.78,0.01,9.42-0.54,14.06-1.76c3.09-0.82,5.91-2.11,8.61-3.65c5.3-3.04,9.75-7.01,13.23-12.13
		c4.05-5.96,6.58-12.39,6.93-19.61c0.11-2.15,0.08-4.31,0.08-6.47C413.14,468.54,413.14,444.62,413.13,420.71z M231.7,379.25
		c-13.51,0.22-25.59-11.66-24.81-25.09c-0.46-6.76,2.36-12.56,7.02-17.44c4.72-4.93,10.84-7.49,17.57-7.35
		c14.37,0.29,24.93,10.26,25.15,24.93C256.83,367.73,246.35,379.01,231.7,379.25z M376.68,508.92c-1.99,1.2-4.38,1.86-6.77,2.42
		c-2.21,0.51-4.36,1.01-6.56,0.77c-5.92-0.63-11.35-2.44-15.84-6.66c-2.63-2.47-4.82-5.24-6.09-8.55c-1.53-3.99-2.41-8.1-1.77-12.54
		c0.51-3.57,1.42-6.91,3.24-9.96c2.78-4.66,6.66-8.18,11.71-10.25c3.37-1.39,6.87-2.18,10.59-2.02c6.41,0.29,11.94,2.56,16.6,6.95
		c3.58,3.38,5.79,7.61,7.04,12.29c0.49,1.83,0.39,3.81,0.53,5.28C389.28,496.78,384.81,504,376.68,508.92z"/>
	<path d="M389.36,486.65c-0.08,10.13-4.55,17.35-12.68,22.27c-1.99,1.2-4.38,1.86-6.77,2.42c-2.21,0.51-4.36,1.01-6.56,0.77
		c-5.92-0.63-11.35-2.44-15.84-6.66c-2.63-2.47-4.82-5.24-6.09-8.55c-1.53-3.99-2.41-8.1-1.77-12.54c0.51-3.57,1.42-6.91,3.24-9.96
		c2.78-4.66,6.66-8.18,11.71-10.25c3.37-1.39,6.87-2.18,10.59-2.02c6.41,0.29,11.94,2.56,16.6,6.95c3.58,3.38,5.79,7.61,7.04,12.29
		C389.32,483.2,389.22,485.18,389.36,486.65z"/>
	<path d="M256.63,354.3c0.2,13.43-10.28,24.71-24.93,24.95c-13.51,0.22-25.59-11.66-24.81-25.09c-0.46-6.76,2.36-12.56,7.02-17.44
		c4.72-4.93,10.84-7.49,17.57-7.35C245.85,329.66,256.41,339.63,256.63,354.3z"/>
</g>
</svg>
