<?xml version="1.0" encoding="utf-8"?>
<!-- Generator: Adobe Illustrator 24.3.0, SVG Export Plug-In . SVG Version: 6.00 Build 0)  -->
<svg version="1.1" id="Livello_1" xmlns="http://www.w3.org/2000/svg" xmlns:xlink="http://www.w3.org/1999/xlink" x="0px" y="0px"
	 viewBox="0 0 595.28 841.89" style="enable-background:new 0 0 595.28 841.89;" xml:space="preserve">
<style type="text/css">
	.st0{fill:#FFFFFF;}
</style>
<g>
	<path class="st0" d="M413.18,345.42c0.01-3.62-0.36-7.17-1.3-10.6c-1.24-4.58-3.23-8.86-6.01-12.75
		c-6.06-8.51-14.24-13.9-24.33-16.28c-3.15-0.75-6.48-0.96-9.73-0.97c-48.71-0.06-97.43-0.03-146.14-0.05
		c-4.55-0.01-8.98,0.45-13.39,1.69c-3.26,0.91-6.31,2.1-9.23,3.79c-5.76,3.33-10.47,7.69-14.05,13.32c-2,3.15-3.63,6.5-4.71,10.03
		c-1.32,4.29-1.59,8.78-1.59,13.26c-0.01,20.8-0.01,41.6-0.01,62.4c0,27.75-0.03,55.51,0.02,83.27c0.01,3.51,0.05,7.09,0.71,10.51
		c0.83,4.32,2.49,8.39,4.74,12.27c5.79,10,14.62,15.8,25.34,19.19c3.43,0.05,6.71,1.1,10.18,1.09c49.12-0.08,98.23-0.06,147.35-0.04
		c4.54,0,8.93-0.58,13.31-1.88c6.43-1.92,11.99-5.19,16.76-9.84c4.1-4,7.22-8.66,9.25-14.05c1.72-4.57,2.96-9.2,2.78-14.13
		c-0.03-0.88,0.01-1.76,0.01-2.64V420.3C413.14,395.34,413.1,370.38,413.18,345.42z M231.13,378.75
		c-13.25-0.23-24.75-11.31-24.53-25.14c0.22-14.54,11.5-24.9,25.31-24.83c13.02,0.07,24.83,10.65,24.38,25.05
		C257.03,366.93,245.19,378.99,231.13,378.75z M298.14,445.14c-14.03,0.29-25.6-11.89-25.17-25.12
		c-0.47-12.55,11.23-25.11,25.2-24.82c14.24,0.3,24.94,11.65,24.86,25.01C322.94,433.88,312.47,444.84,298.14,445.14z M364.37,511.5
		c-14.3-0.08-25.09-11.11-25.07-25.02c0.02-13.91,10.79-24.94,25.21-24.89c13.6,0.05,24.77,10.71,24.75,24.99
		C389.35,500.43,378.04,511.58,364.37,511.5z"/>
	<path d="M323.03,420.21c-0.09,13.67-10.56,24.63-24.89,24.93c-14.03,0.29-25.6-11.89-25.17-25.12
		c-0.47-12.55,11.23-25.11,25.2-24.82C312.41,395.5,323.11,406.85,323.03,420.21z"/>
	<path d="M389.26,486.58c0.09,13.85-11.22,25-24.89,24.92c-14.3-0.08-25.09-11.11-25.07-25.02c0.02-13.91,10.79-24.94,25.21-24.89
		C378.11,461.64,389.28,472.3,389.26,486.58z"/>
	<path d="M231.13,378.75c-13.25-0.23-24.75-11.31-24.53-25.14c0.22-14.54,11.5-24.9,25.31-24.83c13.02,0.07,24.83,10.65,24.38,25.05
		C257.03,366.93,245.19,378.99,231.13,378.75z"/>
	<path d="M426.71,343.62c0-3.32-0.52-6.68-1.19-9.94c-0.58-2.76-1.79-5.37-2.61-8.08c-1.13-3.74-3.07-7.09-5.23-10.26
		c-4.93-7.21-11.17-13.02-18.91-17.22c-4.54-2.47-9.31-4.29-14.27-5.44c-3.62-0.84-7.44-1.13-11.17-1.13
		c-49.91-0.07-99.82-0.05-149.73-0.05c-1.2,0-2.4-0.01-3.6,0.03c-4.58,0.15-9.03,1.11-13.36,2.49c-4.18,1.33-8.14,3.18-11.91,5.49
		c-6.38,3.9-11.56,9.04-15.92,15.04c-2.95,4.08-5.18,8.58-6.74,13.35c-0.94,2.85-1.76,5.78-2.16,8.74
		c-0.49,3.56-0.64,7.18-0.64,10.77c-0.05,47.83-0.05,95.65-0.04,143.48c0,6.78,0.22,13.52,2.39,20.09c1.21,3.67,2.54,7.3,4.46,10.59
		c3.2,5.46,7.07,10.44,12.04,14.5c3.31,2.7,6.78,5.13,10.59,7.03c3.25,1.62,6.58,2.97,10.15,3.85c4.1,1.02,8.15,1.92,12.39,1.78
		c0.56-0.02,1.12,0,1.68,0c25.04,0.01,50.07,0,75.11,0c21.99,0,43.99,0.07,65.98-0.05c6.5-0.03,13.07,0.84,19.51-0.94
		c2.88-0.8,5.91-1.22,8.67-2.32c4.69-1.85,9.03-4.36,13.11-7.42c5.1-3.82,9.31-8.37,12.78-13.63c3.27-4.95,5.61-10.31,6.91-16.15
		c0.89-3.97,1.76-7.91,1.76-12C426.76,445.35,426.78,394.49,426.71,343.62z M413.18,494.17c0,2.95-0.06,5.97-0.67,8.84
		c-1.04,4.85-2.82,9.44-5.58,13.68c-4.46,6.85-10.3,11.96-17.75,15.28c-5.48,2.45-11.22,3.53-17.19,3.53H251.52
		c-9.2,0-18.4-0.03-27.6,0.02c-4.59,0.02-9.15-0.54-13.43-2.03c-7.31-2.54-13.69-6.61-18.62-12.76c-3.62-4.5-6.34-9.47-7.77-15.02
		c-0.74-2.88-1.38-5.83-1.37-8.92c0.09-25.6,0.05-51.2,0.05-76.79c0,0-0.01,0-0.02,0v-73.68c0-1.04,0.04-2.08,0.01-3.12
		c-0.08-3.38,0.93-6.54,1.8-9.76c1.69-6.26,5.06-11.52,9.45-16.13c3.49-3.67,7.53-6.63,12.21-8.69c3.49-1.53,7.1-2.37,10.84-3.09
		c4-0.76,7.95-0.65,11.93-0.65c47.51-0.03,95.03-0.01,142.55-0.05c4.75,0,9.43,0.63,13.85,2.09c9.19,3.04,16.46,8.75,21.7,17.01
		c2.62,4.14,4.35,8.63,5.39,13.34c0.61,2.78,0.69,5.72,0.7,8.59C413.22,395.3,413.22,444.73,413.18,494.17z"/>
</g>
</svg>
