<?xml version="1.0" encoding="utf-8"?>
<!-- Generator: Adobe Illustrator 24.3.0, SVG Export Plug-In . SVG Version: 6.00 Build 0)  -->
<svg version="1.1" id="Livello_1" xmlns="http://www.w3.org/2000/svg" xmlns:xlink="http://www.w3.org/1999/xlink" x="0px" y="0px"
	 viewBox="0 0 595.28 841.89" style="enable-background:new 0 0 595.28 841.89;" xml:space="preserve">
<style type="text/css">
	.st0{fill:#FFFFFF;}
</style>
<g>
	<path d="M425.08,332.35c-0.87-3.06-1.79-6.04-3.12-8.95c-2.55-5.56-5.89-10.51-10.05-14.94c-5.62-5.98-12.36-10.36-20.01-13.19
		c-6.14-2.28-12.53-3.43-19.18-3.42c-45.83,0.09-91.67,0.05-137.51,0.05c-4.72,0-9.44-0.03-14.16,0.02
		c-1.91,0.03-3.9-0.04-5.72,0.43c-4.2,1.1-8.51,1.66-12.54,3.59c-3.15,1.51-6.34,2.89-9.28,4.81
		c-10.43,6.82-17.45,16.28-21.52,27.96c-1.05,2.98-1.76,6.13-2.18,9.26c-0.41,3-0.33,6.07-0.33,9.11
		c-0.03,24.47-0.02,48.95-0.02,73.43c0.01,0,0.01,0,0.01,0c0,23.6-0.03,47.2,0.02,70.79c0.02,5.41-0.41,10.87,1.2,16.17
		c0.53,1.75,0.69,3.62,1.34,5.31c1.79,4.72,3.94,9.26,6.86,13.42c5.02,7.16,11.4,12.82,19.12,16.91c3.54,1.87,7.26,3.34,11.22,4.27
		c3.54,0.83,7.04,1.73,10.7,1.75c1.28,0.01,2.56,0.02,3.84,0.02c49.44,0,98.87-0.01,148.31,0.02c5.01,0,9.91-0.36,14.79-1.79
		c3.11-0.91,6.15-1.92,9.11-3.21c4.59-2,8.62-4.92,12.41-8.1c2.94-2.47,5.43-5.4,7.78-8.49c4.83-6.36,7.86-13.5,9.64-21.15
		c0.84-3.61,1.03-7.44,1.04-11.17c0.06-49.28,0.03-98.55,0.05-147.83C426.92,342.32,426.5,337.29,425.08,332.35z M413.32,493.57
		c0,5.44-0.55,10.85-2.54,15.99c-2.17,5.61-5.36,10.51-9.67,14.79c-3.77,3.73-8.16,6.41-12.9,8.5c-2.58,1.14-5.47,1.57-8.24,2.26
		c-7,1.73-14.14,0.91-21.21,0.92c-44.79,0.08-89.58,0.09-134.38-0.01c-8.29-0.02-16.08-2.11-23.17-6.76
		c-4.85-3.18-8.79-7.09-11.92-11.89c-4.29-6.59-6.37-13.79-6.36-21.67c0.04-25.04,0.02-50.07,0.02-75.11
		c0-24.79,0.02-49.59-0.03-74.39c-0.01-3.78,0.23-7.54,1.26-11.15c1.44-5.09,3.76-9.79,6.99-14.05c3.29-4.34,7.46-7.73,12.04-10.53
		c2.47-1.52,5.38-2.38,8.17-3.32c5.03-1.69,10.26-1.87,15.54-1.87c48.47,0.05,96.95,0.06,145.42-0.02c3.47-0.01,6.9,0.43,10.17,1.19
		c6.73,1.58,12.71,4.82,17.83,9.58c3.85,3.58,6.92,7.71,9.18,12.41c2.79,5.83,3.72,12.11,3.81,18.52c0.04,2.64,0.01,5.28,0.01,7.92
		C413.36,401.11,413.37,447.34,413.32,493.57z"/>
	<path class="st0" d="M413.33,346.96c-0.09-6.41-1.02-12.69-3.81-18.52c-2.26-4.7-5.33-8.83-9.18-12.41
		c-5.12-4.76-11.1-8-17.83-9.58c-3.27-0.76-6.7-1.2-10.17-1.19c-48.47,0.08-96.95,0.07-145.42,0.02c-5.28,0-10.51,0.18-15.54,1.87
		c-2.79,0.94-5.7,1.8-8.17,3.32c-4.58,2.8-8.75,6.19-12.04,10.53c-3.23,4.26-5.55,8.96-6.99,14.05c-1.03,3.61-1.27,7.37-1.26,11.15
		c0.05,24.8,0.03,49.6,0.03,74.39c0,25.04,0.02,50.07-0.02,75.11c-0.01,7.88,2.07,15.08,6.36,21.67c3.13,4.8,7.07,8.71,11.92,11.89
		c7.09,4.65,14.88,6.74,23.17,6.76c44.8,0.1,89.59,0.09,134.38,0.01c7.07-0.01,14.21,0.81,21.21-0.92c2.77-0.69,5.66-1.12,8.24-2.26
		c4.74-2.09,9.13-4.77,12.9-8.5c4.31-4.28,7.5-9.18,9.67-14.79c1.99-5.14,2.54-10.55,2.54-15.99c0.04-46.23,0.03-92.46,0.02-138.69
		C413.35,352.24,413.38,349.6,413.33,346.96z M254.87,496.36c-1.81,4.58-4.9,8.4-9.07,11.19c-2.91,1.93-6.03,3.23-9.55,3.85
		c-1.96,0.35-3.89,0.88-5.85,0.64c-8.94-1.11-16.1-4.97-20.62-13.17c-3.54-6.41-4-13.08-1.84-19.84
		c1.92-6.01,5.79-10.77,11.41-13.81c3.83-2.08,7.9-3.57,12.08-3.13c6.93-0.3,12.53,2.27,17.25,6.53c3.99,3.6,6.45,8.22,7.53,13.67
		C257.19,487.2,256.63,491.89,254.87,496.36z M231.69,379.17c-13.7,0.2-25.04-11.44-25.02-24.95c0.03-13.72,11.31-25.05,25.02-24.99
		c13.71,0.07,25.03,10.91,25.01,25.04C256.68,367.87,245.77,379.19,231.69,379.17z M364.69,511.99c-6.98,0.17-13.3-2.42-18.19-7.7
		c-4.54-4.9-7.22-10.58-6.92-17.24c-0.6-13.38,11.43-25.15,24.93-25.07c13.2,0.07,25.12,11.08,24.89,25.08
		C389.15,501.71,377.94,511.66,364.69,511.99z M364.04,379.21c-13.35-0.13-25.02-11.78-24.45-25.02
		c-0.45-13.84,11.55-25.17,25.11-24.96c13.51,0.21,24.94,10.86,24.73,25.49C389.23,368.27,378.01,379.34,364.04,379.21z"/>
	<path d="M254.87,496.36c-1.81,4.58-4.9,8.4-9.07,11.19c-2.91,1.93-6.03,3.23-9.55,3.85c-1.96,0.35-3.89,0.88-5.85,0.64
		c-8.94-1.11-16.1-4.97-20.62-13.17c-3.54-6.41-4-13.08-1.84-19.84c1.92-6.01,5.79-10.77,11.41-13.81c3.83-2.08,7.9-3.57,12.08-3.13
		c6.93-0.3,12.53,2.27,17.25,6.53c3.99,3.6,6.45,8.22,7.53,13.67C257.19,487.2,256.63,491.89,254.87,496.36z"/>
	<path d="M256.69,354.27c-0.02,13.6-10.92,24.92-25.01,24.9c-13.7,0.2-25.04-11.44-25.02-24.95c0.03-13.72,11.31-25.05,25.02-24.99
		C245.39,329.3,256.71,340.14,256.69,354.27z"/>
	<path d="M389.43,354.72c-0.2,13.55-11.42,24.62-25.39,24.49c-13.35-0.13-25.02-11.78-24.45-25.02
		c-0.45-13.84,11.55-25.17,25.11-24.96C378.2,329.44,389.63,340.09,389.43,354.72z"/>
	<path d="M389.39,487.06c-0.24,14.66-11.46,24.6-24.71,24.93c-6.98,0.17-13.3-2.42-18.19-7.7c-4.54-4.9-7.22-10.58-6.92-17.24
		c-0.6-13.38,11.43-25.15,24.93-25.07C377.7,462.05,389.63,473.06,389.39,487.06z"/>
</g>
</svg>
