<?xml version="1.0" encoding="utf-8"?>
<!-- Generator: Adobe Illustrator 24.3.0, SVG Export Plug-In . SVG Version: 6.00 Build 0)  -->
<svg version="1.1" id="Livello_1" xmlns="http://www.w3.org/2000/svg" xmlns:xlink="http://www.w3.org/1999/xlink" x="0px" y="0px"
	 viewBox="0 0 595.28 841.89" style="enable-background:new 0 0 595.28 841.89;" xml:space="preserve">
<style type="text/css">
	.st0{fill:#FFFFFF;}
</style>
<g>
	<path d="M426.71,343.62c0-3.32-0.52-6.68-1.19-9.94c-0.58-2.76-1.79-5.37-2.61-8.08c-1.13-3.74-3.07-7.09-5.23-10.26
		c-4.93-7.21-11.17-13.02-18.91-17.22c-4.54-2.47-9.31-4.29-14.27-5.44c-3.62-0.84-7.44-1.13-11.17-1.13
		c-49.91-0.07-99.82-0.05-149.73-0.05c-1.2,0-2.4-0.01-3.6,0.03c-4.58,0.15-9.03,1.11-13.36,2.49c-4.18,1.33-8.14,3.18-11.91,5.49
		c-6.38,3.9-11.56,9.04-15.92,15.04c-2.95,4.08-5.18,8.58-6.74,13.35c-0.94,2.85-1.76,5.78-2.16,8.74
		c-0.49,3.56-0.64,7.18-0.64,10.77c-0.05,47.83-0.05,95.65-0.04,143.48c0,6.78,0.22,13.52,2.39,20.09c1.21,3.67,2.54,7.3,4.46,10.59
		c3.2,5.46,7.07,10.44,12.04,14.5c3.31,2.7,6.78,5.13,10.59,7.03c3.25,1.62,6.58,2.97,10.15,3.85c4.1,1.02,8.15,1.92,12.39,1.78
		c0.56-0.02,1.12,0,1.68,0c25.04,0.01,50.07,0,75.11,0c21.99,0,43.99,0.07,65.98-0.05c6.5-0.03,13.07,0.84,19.51-0.94
		c2.88-0.8,5.91-1.22,8.67-2.32c4.69-1.85,9.03-4.36,13.11-7.42c5.1-3.82,9.31-8.37,12.78-13.63c3.27-4.95,5.61-10.31,6.91-16.15
		c0.89-3.97,1.76-7.91,1.76-12C426.76,445.35,426.78,394.49,426.71,343.62z M413.18,494.17c0,2.95-0.06,5.97-0.67,8.84
		c-1.04,4.85-2.82,9.44-5.58,13.68c-4.46,6.85-10.3,11.96-17.75,15.28c-5.48,2.45-11.22,3.53-17.19,3.53H251.52
		c-9.2,0-18.4-0.03-27.6,0.02c-4.59,0.02-9.15-0.54-13.43-2.03c-7.31-2.54-13.69-6.61-18.62-12.76c-3.62-4.5-6.34-9.47-7.77-15.02
		c-0.74-2.88-1.38-5.83-1.37-8.92c0.09-25.6,0.05-51.2,0.05-76.79c0,0-0.01,0-0.02,0v-73.68c0-1.04,0.04-2.08,0.01-3.12
		c-0.08-3.38,0.93-6.54,1.8-9.76c1.69-6.26,5.06-11.52,9.45-16.13c3.49-3.67,7.53-6.63,12.21-8.69c3.49-1.53,7.1-2.37,10.84-3.09
		c4-0.76,7.95-0.65,11.93-0.65c47.51-0.03,95.03-0.01,142.55-0.05c4.75,0,9.43,0.63,13.85,2.09c9.19,3.04,16.46,8.75,21.7,17.01
		c2.62,4.14,4.35,8.63,5.39,13.34c0.61,2.78,0.69,5.72,0.7,8.59C413.22,395.3,413.22,444.73,413.18,494.17z"/>
	<path class="st0" d="M413.05,345.93c0-3.25-0.04-6.48-0.86-9.73c-0.9-3.58-2.11-6.96-3.84-10.17c-3.04-5.61-7.25-10.21-12.44-13.9
		c-4.13-2.92-8.76-4.98-13.6-6.12c-3.41-0.8-6.99-1.22-10.62-1.21c-48.88,0.09-97.76,0.07-146.64,0.05c-4.63,0-9.18,0.35-13.55,1.97
		c-2.52,0.93-5.03,1.92-7.44,3.11c-6.35,3.13-11.25,7.88-15.02,13.85c-3.68,5.82-5.91,12.07-6.05,19c-0.03,1.92-0.04,3.84-0.04,5.76
		c-0.01,23.84-0.01,47.68-0.01,71.52c0.01,0,0.01,0,0.01,0c0,24.96,0.03,49.92-0.02,74.88c-0.01,5.55,0.8,10.86,3.03,16
		c2.61,5.97,6.34,11.06,11.27,15.24c4.92,4.16,10.64,6.93,16.88,8.38c3.08,0.72,6.33,1,9.5,1.01c47.75,0.06,95.51,0.03,143.27,0.05
		c5.73,0.01,11.42-0.03,17-1.73c2.67-0.82,5.25-1.71,7.73-3.02c8.09-4.29,14.09-10.53,17.94-18.82c2.05-4.43,3.42-9.03,3.45-13.97
		c0-1.12,0.05-2.24,0.05-3.36C413.06,445.12,413.08,395.53,413.05,345.93z M364.24,328.88c13.4-0.2,25.52,10.92,24.9,25.06
		c0.57,13.92-11.33,24.98-24.72,24.91c-13.9-0.08-25.09-10.81-24.98-25.1C339.54,339.39,350.66,329.09,364.24,328.88z
		 M231.65,328.88c13.75,0.13,24.91,10.72,24.92,24.98c0.01,14.41-11.26,24.85-24.86,24.99c-13.42,0.14-25.5-10.96-24.83-25
		C206.25,339.97,218.24,328.75,231.65,328.88z M231.7,511.6c-13.31,0.19-25.35-10.56-24.83-25.08
		c-0.78-13.19,11.33-24.98,24.69-24.86c14.4,0.12,25.19,11.61,25.04,24.92C256.42,501.5,245.4,511.4,231.7,511.6z M297.95,445.08
		c-13.92,0.55-25.26-11.89-25-25.19c0.27-13.42,11.29-24.57,24.98-24.63c13.78-0.05,25.29,11.35,25.13,25.45
		C322.91,433.52,311.77,445.68,297.95,445.08z M364.38,511.6c-14.31-0.24-24.97-10.56-24.99-25.2
		c-0.01-13.47,10.76-24.68,25.23-24.74c13.29-0.05,25.34,11.71,24.53,25.03C389.62,500.99,377.61,511.82,364.38,511.6z"/>
	<path d="M389.15,486.69c0.47,14.3-11.54,25.13-24.77,24.91c-14.31-0.24-24.97-10.56-24.99-25.2
		c-0.01-13.47,10.76-24.68,25.23-24.74C377.91,461.61,389.96,473.37,389.15,486.69z"/>
	<path d="M323.06,420.71c-0.15,12.81-11.29,24.97-25.11,24.37c-13.92,0.55-25.26-11.89-25-25.19c0.27-13.42,11.29-24.57,24.98-24.63
		C311.71,395.21,323.22,406.61,323.06,420.71z"/>
	<path d="M389.14,353.94c0.57,13.92-11.33,24.98-24.72,24.91c-13.9-0.08-25.09-10.81-24.98-25.1c0.1-14.36,11.22-24.66,24.8-24.87
		C377.64,328.68,389.76,339.8,389.14,353.94z"/>
	<path d="M256.57,353.86c0.01,14.41-11.26,24.85-24.86,24.99c-13.42,0.14-25.5-10.96-24.83-25c-0.63-13.88,11.36-25.1,24.77-24.97
		C245.4,329.01,256.56,339.6,256.57,353.86z"/>
	<path d="M256.6,486.58c-0.18,14.92-11.2,24.82-24.9,25.02c-13.31,0.19-25.35-10.56-24.83-25.08
		c-0.78-13.19,11.33-24.98,24.69-24.86C245.96,461.78,256.75,473.27,256.6,486.58z"/>
</g>
</svg>
