<?xml version="1.0" encoding="utf-8"?>
<!-- Generator: Adobe Illustrator 24.3.0, SVG Export Plug-In . SVG Version: 6.00 Build 0)  -->
<svg version="1.1" id="Livello_1" xmlns="http://www.w3.org/2000/svg" xmlns:xlink="http://www.w3.org/1999/xlink" x="0px" y="0px"
	 viewBox="0 0 595.28 841.89" style="enable-background:new 0 0 595.28 841.89;" xml:space="preserve">
<style type="text/css">
	.st0{fill:#FFFFFF;}
</style>
<g>
	<path d="M426.71,343.62c0-3.32-0.52-6.68-1.19-9.94c-0.58-2.76-1.79-5.37-2.61-8.08c-1.13-3.74-3.07-7.09-5.23-10.26
		c-4.93-7.21-11.17-13.02-18.91-17.22c-4.54-2.47-9.31-4.29-14.27-5.44c-3.62-0.84-7.44-1.13-11.17-1.13
		c-49.91-0.07-99.82-0.05-149.73-0.05c-1.2,0-2.4-0.01-3.6,0.03c-4.58,0.15-9.03,1.11-13.36,2.49c-4.18,1.33-8.14,3.18-11.91,5.49
		c-6.38,3.9-11.56,9.04-15.92,15.04c-2.95,4.08-5.18,8.58-6.74,13.35c-0.94,2.85-1.76,5.78-2.16,8.74
		c-0.49,3.56-0.64,7.18-0.64,10.77c-0.05,47.83-0.05,95.65-0.04,143.48c0,6.78,0.22,13.52,2.39,20.09c1.21,3.67,2.54,7.3,4.46,10.59
		c3.2,5.46,7.07,10.44,12.04,14.5c3.31,2.7,6.78,5.13,10.59,7.03c3.25,1.62,6.58,2.97,10.15,3.85c4.1,1.02,8.15,1.92,12.39,1.78
		c0.56-0.02,1.12,0,1.68,0c25.04,0.01,50.07,0,75.11,0c21.99,0,43.99,0.07,65.98-0.05c6.5-0.03,13.07,0.84,19.51-0.94
		c2.88-0.8,5.91-1.22,8.67-2.32c4.69-1.85,9.03-4.36,13.11-7.42c5.1-3.82,9.31-8.37,12.78-13.63c3.27-4.95,5.61-10.31,6.91-16.15
		c0.89-3.97,1.76-7.91,1.76-12C426.76,445.35,426.78,394.49,426.71,343.62z M413.18,494.17c0,2.95-0.06,5.97-0.67,8.84
		c-1.04,4.85-2.82,9.44-5.58,13.68c-4.46,6.85-10.3,11.96-17.75,15.28c-5.48,2.45-11.22,3.53-17.19,3.53H251.52
		c-9.2,0-18.4-0.03-27.6,0.02c-4.59,0.02-9.15-0.54-13.43-2.03c-7.31-2.54-13.69-6.61-18.62-12.76c-3.62-4.5-6.34-9.47-7.77-15.02
		c-0.74-2.88-1.38-5.83-1.37-8.92c0.09-25.6,0.05-51.2,0.05-76.79c0,0-0.01,0-0.02,0v-73.68c0-1.04,0.04-2.08,0.01-3.12
		c-0.08-3.38,0.93-6.54,1.8-9.76c1.69-6.26,5.06-11.52,9.45-16.13c3.49-3.67,7.53-6.63,12.21-8.69c3.49-1.53,7.1-2.37,10.84-3.09
		c4-0.76,7.95-0.65,11.93-0.65c47.51-0.03,95.03-0.01,142.55-0.05c4.75,0,9.43,0.63,13.85,2.09c9.19,3.04,16.46,8.75,21.7,17.01
		c2.62,4.14,4.35,8.63,5.39,13.34c0.61,2.78,0.69,5.72,0.7,8.59C413.22,395.3,413.22,444.73,413.18,494.17z"/>
	<path class="st0" d="M412.14,336.26c-0.54-1.65-0.69-3.44-1.35-5.03c-2.11-5.03-4.82-9.66-8.62-13.7
		c-5.5-5.84-12.15-9.65-19.84-11.5c-3.84-0.92-7.82-1.23-11.84-1.22c-45.76,0.08-91.52,0.03-137.27,0.09
		c-5.81,0-11.66-0.7-17.41,0.85c-1.91,0.51-3.96,0.59-5.79,1.26c-5.17,1.91-9.89,4.59-14.03,8.33c-5.52,5-9.3,11.1-11.63,18.05
		c-1.37,4.08-1.62,8.44-1.63,12.76c-0.01,47.43-0.02,94.87,0.01,142.3c0,3.68,0.25,7.35,0.34,11.02c0.11,4.78,1.71,9.15,3.77,13.36
		c2,4.12,4.74,7.7,7.97,11c4.59,4.67,10.12,7.71,16.16,9.76c4.22,1.43,8.72,1.87,13.22,1.87c48.47-0.01,96.95-0.01,145.42,0
		c6.26,0.01,12.39-0.58,18.28-2.96c4.88-1.98,9.3-4.71,13.01-8.35c4.32-4.22,7.78-9.17,9.76-14.97c1.25-3.66,2.47-7.37,2.46-11.32
		c0-1.28,0.03-2.56,0.04-3.84V420.1c0-22.79,0.04-45.59-0.03-68.39C413.12,346.55,413.8,341.33,412.14,336.26z M364.27,328.78
		c13.71-0.09,25.1,10.6,25.01,25.15c0.21,13.56-11.39,25.05-25.08,24.87c-14.27-0.19-24.82-11.5-24.88-24.7
		C339.26,339.49,350.35,328.87,364.27,328.78z M231.4,328.77c13.11-0.23,25.41,10.32,24.92,25.03
		c0.76,13.72-11.56,24.96-24.43,25.02c-13.75,0.07-25.36-10.93-25.29-24.95C206.68,339.2,217.79,329,231.4,328.77z M231.64,511.55
		c-13.77-0.05-25.11-10.63-25.01-25.48c0.08-13.53,11.58-24.41,24.97-24.5c12.74-0.09,25.56,11.1,24.71,25.07
		C256.73,500.86,244.97,511.61,231.64,511.55z M231.28,445.08c-13.57-0.28-24.88-11.04-24.65-25.48
		c0.21-13.38,11.25-24.32,25.11-24.32c13.84,0.01,25.32,11.91,24.6,24.92C257.04,433.9,244.6,445.35,231.28,445.08z M364.28,511.54
		c-14.01-0.05-24.86-10.85-24.96-25.03c-0.1-13.57,10.93-24.76,24.99-24.9c13.4-0.13,25.25,11.15,24.97,24.94
		C389.26,500.8,378.17,511.58,364.28,511.54z M364.55,445.02c-14.01,0.23-25.18-10.84-25.25-24.88
		c-0.06-12.77,10.21-24.58,24.71-24.85c14.42-0.27,24.93,11.84,25.33,23.93C389.81,433.46,378.07,445.3,364.55,445.02z"/>
	<path d="M389.28,353.93c0.21,13.56-11.39,25.05-25.08,24.87c-14.27-0.19-24.82-11.5-24.88-24.7
		c-0.06-14.61,11.03-25.23,24.95-25.32C377.98,328.69,389.37,339.38,389.28,353.93z"/>
	<path d="M389.28,486.55c-0.02,14.25-11.11,25.03-25,24.99c-14.01-0.05-24.86-10.85-24.96-25.03c-0.1-13.57,10.93-24.76,24.99-24.9
		C377.71,461.48,389.56,472.76,389.28,486.55z"/>
	<path d="M231.89,378.82c-13.75,0.07-25.36-10.93-25.29-24.95c0.08-14.67,11.19-24.87,24.8-25.1c13.11-0.23,25.41,10.32,24.92,25.03
		C257.08,367.52,244.76,378.76,231.89,378.82z"/>
	<path d="M364.55,445.02c-14.01,0.23-25.18-10.84-25.25-24.88c-0.06-12.77,10.21-24.58,24.71-24.85
		c14.42-0.27,24.93,11.84,25.33,23.93C389.81,433.46,378.07,445.3,364.55,445.02z"/>
	<path d="M256.31,486.64c0.42,14.22-11.34,24.97-24.67,24.91c-13.77-0.05-25.11-10.63-25.01-25.48
		c0.08-13.53,11.58-24.41,24.97-24.5C244.34,461.48,257.16,472.67,256.31,486.64z"/>
	<path d="M256.34,420.2c0.7,13.7-11.74,25.15-25.06,24.88c-13.57-0.28-24.88-11.04-24.65-25.48c0.21-13.38,11.25-24.32,25.11-24.32
		C245.58,395.29,257.06,407.19,256.34,420.2z"/>
</g>
</svg>
